<svg xmlns="http://www.w3.org/2000/svg" width="355.207" height="257.258" viewBox="0 0 355.207 257.258">
  <g id="Earn_Rewards" data-name="Earn Rewards" transform="translate(-211.365 -174.02)">
    <path id="Caminho_143" data-name="Caminho 143" d="M561.685,430.794h-333.9L211.466,275.749a18.176,18.176,0,0,1,5.581-15.115L283.3,197.788a18.233,18.233,0,0,1,10.8-4.918L490.09,174.1a18.191,18.191,0,0,1,16.564,7.543L558.668,254.6a18.368,18.368,0,0,1,3.379,10.62Z" transform="translate(0 0)" fill="#f4f4f4"/>
    <path id="Caminho_144" data-name="Caminho 144" d="M1098.111,438.315l-7.039,13.96c-1.047,2.094-2.661,2.112-5.379.552l-18.953-11.643,3.229-4.8,15.812,6.939,7.89-20.772" transform="translate(-597.304 -173.548)" fill="#9ad2c1"/>
    <path id="Caminho_145" data-name="Caminho 145" d="M1067.938,479.529l20.078,12.273a4.642,4.642,0,0,0,3.4.932c-.98,1.451-2.954,1.279-5.337-.344l-18.262-11.211Z" transform="translate(-598.059 -213.336)" opacity="0.15"/>
    <path id="Caminho_146" data-name="Caminho 146" d="M1131.464,462.213l3.164-12.563-4.779,12.536.362.347a.713.713,0,0,0,1.252-.32Z" transform="translate(-641.374 -192.472)" opacity="0.15"/>
    <path id="Caminho_147" data-name="Caminho 147" d="M1039.512,636.51h-14.784a3.235,3.235,0,0,1-3.228-3.228V471.628a3.233,3.233,0,0,1,3.228-3.228h14.784a8.819,8.819,0,0,1,8.81,8.81V627.73a8.813,8.813,0,0,1-8.81,8.78Z" transform="translate(-565.714 -205.564)" fill="#21252b"/>
    <path id="Caminho_148" data-name="Caminho 148" d="M871.9,636.441H801.275a9.488,9.488,0,0,1-9.474-9.473V477.775a9.488,9.488,0,0,1,9.474-9.474H871.9a9.488,9.488,0,0,1,9.474,9.474V626.937a9.474,9.474,0,0,1-9.474,9.5Z" transform="translate(-405.316 -205.495)" fill="#61656d"/>
    <path id="Caminho_149" data-name="Caminho 149" d="M880.58,481.1H862.3a2.558,2.558,0,0,0-2.534,2.112,2.582,2.582,0,0,1-2.534,2.112H833.605a2.559,2.559,0,0,1-2.534-2.112,2.582,2.582,0,0,0-2.534-2.112H810.253a5.859,5.859,0,0,0-5.853,5.853V635.6a5.86,5.86,0,0,0,5.853,5.853h70.388a5.861,5.861,0,0,0,5.853-5.853V486.983a5.917,5.917,0,0,0-5.914-5.883Z" transform="translate(-414.114 -214.433)" fill="#9ad2c1"/>
    <path id="Caminho_150" data-name="Caminho 150" d="M880.58,481.1H862.3a2.558,2.558,0,0,0-2.534,2.112,2.582,2.582,0,0,1-2.534,2.112H833.605a2.559,2.559,0,0,1-2.534-2.112,2.582,2.582,0,0,0-2.534-2.112H810.253a5.859,5.859,0,0,0-5.853,5.853V635.6a5.86,5.86,0,0,0,5.853,5.853h70.388a5.861,5.861,0,0,0,5.853-5.853V486.983a5.917,5.917,0,0,0-5.914-5.883Z" transform="translate(-414.114 -214.433)" fill="#fff" opacity="0.5"/>
    <path id="Caminho_151" data-name="Caminho 151" d="M926.321,482.527H907.465a.664.664,0,0,1,0-1.328h18.857a.67.67,0,0,1,.664.664.654.654,0,0,1-.191.473.66.66,0,0,1-.217.144.653.653,0,0,1-.256.047Z" transform="translate(-485.62 -214.502)" opacity="0.5"/>
    <path id="Caminho_152" data-name="Caminho 152" d="M692.365,576.3l-3.258-1.72-.151.271a22.006,22.006,0,0,0-20.214,38.407l-.151.271,3.258,1.72a22.024,22.024,0,0,0,20.516-38.95Z" transform="translate(-313.333 -279.13)" fill="#9ad2c1"/>
    <path id="Caminho_153" data-name="Caminho 153" d="M692.365,576.3l-3.258-1.72-.151.271a22.006,22.006,0,0,0-20.214,38.407l-.151.271,3.258,1.72a22.024,22.024,0,0,0,20.516-38.95Z" transform="translate(-313.333 -279.13)" opacity="0.3"/>
    <path id="Caminho_154" data-name="Caminho 154" d="M675.094,613.989a21.994,21.994,0,1,0-15.552-6.442,21.994,21.994,0,0,0,15.552,6.442Z" transform="translate(-308.461 -276.512)" fill="#9ad2c1"/>
    <path id="Caminho_155" data-name="Caminho 155" d="M717.21,623.571a.412.412,0,0,0-.081-.142.4.4,0,0,0-.131-.1l-1.841-.966a4.214,4.214,0,0,0,.121-1.931l2.534,1.327a.352.352,0,0,0,.148.049.359.359,0,0,0,.154-.019.4.4,0,0,0,.241-.211l.573-1.117a.355.355,0,0,0,.03-.3.4.4,0,0,0-.211-.241l-9.021-4.737a.356.356,0,0,0-.3-.03.406.406,0,0,0-.241.211l-.754,1.448a.354.354,0,0,0-.05.148.347.347,0,0,0,.02.154.471.471,0,0,0,.181.241l1.569.814c1.539.815,2.293,1.72,2.263,2.745l-4.465-2.353a.356.356,0,0,0-.147-.049.352.352,0,0,0-.154.018.409.409,0,0,0-.241.211l-.573,1.116a.362.362,0,0,0-.049.148.355.355,0,0,0,.019.154.4.4,0,0,0,.211.241l4.646,2.444a2.524,2.524,0,0,1-1.84.784,5.538,5.538,0,0,1-2.564-.754l-1.207-.634a.347.347,0,0,0-.3-.03.473.473,0,0,0-.241.181l-.724,1.388a.352.352,0,0,0-.05.148.346.346,0,0,0,.02.154c.6,2.2,1.026,3.771,1.84,7.6a.385.385,0,0,0,.211.272l2.112,1.116a.362.362,0,0,0,.422-.03.328.328,0,0,0,.151-.392c-.754-3.711-1.086-5.069-1.629-7a6.169,6.169,0,0,0,3.621.392,4.543,4.543,0,0,0,2.745-1.81l1.81.965a.349.349,0,0,0,.147.049.355.355,0,0,0,.154-.019.4.4,0,0,0,.143-.081.4.4,0,0,0,.1-.131l.573-1.116A.464.464,0,0,0,717.21,623.571Z" transform="translate(-344.513 -308.027)" fill="#9ad2c1"/>
    <path id="Caminho_156" data-name="Caminho 156" d="M684.1,619.1a18.1,18.1,0,1,0-12.8-5.3,18.1,18.1,0,0,0,12.8,5.3Z" transform="translate(-317.469 -285.519)" opacity="0.3"/>
    <path id="Caminho_157" data-name="Caminho 157" d="M671.138,594.244a18.1,18.1,0,0,1,23.533-8.025,8.176,8.176,0,0,0-.875-.483,18.1,18.1,0,0,0-16.865,32.011l.905.453a18.12,18.12,0,0,1-6.7-23.955Z" transform="translate(-318.745 -286.244)" opacity="0.2"/>
    <path id="Caminho_158" data-name="Caminho 158" d="M722.18,626.24a.41.41,0,0,0-.081-.143.4.4,0,0,0-.131-.1l-1.841-.966a4.219,4.219,0,0,0,.121-1.931l2.534,1.328a.356.356,0,0,0,.148.048.351.351,0,0,0,.154-.018.4.4,0,0,0,.241-.211l.573-1.116a.351.351,0,0,0,.049-.148.357.357,0,0,0-.019-.154.408.408,0,0,0-.081-.143.4.4,0,0,0-.131-.1l-8.991-4.707a.348.348,0,0,0-.147-.049.356.356,0,0,0-.154.018.4.4,0,0,0-.142.081.4.4,0,0,0-.1.131l-.754,1.448a.346.346,0,0,0-.03.3.473.473,0,0,0,.181.241l1.569.815c1.539.814,2.293,1.72,2.263,2.745l-4.465-2.353a.352.352,0,0,0-.148-.049.357.357,0,0,0-.154.019.406.406,0,0,0-.142.081.4.4,0,0,0-.1.131l-.573,1.116a.366.366,0,0,0-.049.148.359.359,0,0,0,.019.154.4.4,0,0,0,.211.242l4.646,2.444a2.523,2.523,0,0,1-1.84.784,5.54,5.54,0,0,1-2.564-.754l-1.207-.633a.346.346,0,0,0-.3-.03.47.47,0,0,0-.242.181l-.724,1.388a.347.347,0,0,0-.03.3c.6,2.2,1.026,3.771,1.84,7.6a.387.387,0,0,0,.074.161.382.382,0,0,0,.137.111l2.112,1.116a.362.362,0,0,0,.422-.03.328.328,0,0,0,.151-.392c-.754-3.711-1.086-5.069-1.629-7a6.175,6.175,0,0,0,3.62.392,4.548,4.548,0,0,0,2.745-1.81l1.81.966a.356.356,0,0,0,.148.048.345.345,0,0,0,.154-.018.4.4,0,0,0,.143-.081.4.4,0,0,0,.1-.13l.573-1.116a.515.515,0,0,0,.03-.362Z" transform="translate(-348.005 -309.913)" fill="#9ad2c1"/>
    <path id="Caminho_159" data-name="Caminho 159" d="M722.18,626.24a.41.41,0,0,0-.081-.143.4.4,0,0,0-.131-.1l-1.841-.966a4.219,4.219,0,0,0,.121-1.931l2.534,1.328a.356.356,0,0,0,.148.048.351.351,0,0,0,.154-.018.4.4,0,0,0,.241-.211l.573-1.116a.351.351,0,0,0,.049-.148.357.357,0,0,0-.019-.154.408.408,0,0,0-.081-.143.4.4,0,0,0-.131-.1l-8.991-4.707a.348.348,0,0,0-.147-.049.356.356,0,0,0-.154.018.4.4,0,0,0-.142.081.4.4,0,0,0-.1.131l-.754,1.448a.346.346,0,0,0-.03.3.473.473,0,0,0,.181.241l1.569.815c1.539.814,2.293,1.72,2.263,2.745l-4.465-2.353a.352.352,0,0,0-.148-.049.357.357,0,0,0-.154.019.406.406,0,0,0-.142.081.4.4,0,0,0-.1.131l-.573,1.116a.366.366,0,0,0-.049.148.359.359,0,0,0,.019.154.4.4,0,0,0,.211.242l4.646,2.444a2.523,2.523,0,0,1-1.84.784,5.54,5.54,0,0,1-2.564-.754l-1.207-.633a.346.346,0,0,0-.3-.03.47.47,0,0,0-.242.181l-.724,1.388a.347.347,0,0,0-.03.3c.6,2.2,1.026,3.771,1.84,7.6a.387.387,0,0,0,.074.161.382.382,0,0,0,.137.111l2.112,1.116a.362.362,0,0,0,.422-.03.328.328,0,0,0,.151-.392c-.754-3.711-1.086-5.069-1.629-7a6.175,6.175,0,0,0,3.62.392,4.548,4.548,0,0,0,2.745-1.81l1.81.966a.356.356,0,0,0,.148.048.345.345,0,0,0,.154-.018.4.4,0,0,0,.143-.081.4.4,0,0,0,.1-.13l.573-1.116a.515.515,0,0,0,.03-.362Z" transform="translate(-348.005 -309.913)" opacity="0.3"/>
    <path id="Caminho_160" data-name="Caminho 160" d="M717.21,623.571a.412.412,0,0,0-.081-.142.4.4,0,0,0-.131-.1l-1.841-.966a4.214,4.214,0,0,0,.121-1.931l2.534,1.327a.352.352,0,0,0,.148.049.359.359,0,0,0,.154-.019.4.4,0,0,0,.241-.211l.573-1.117a.355.355,0,0,0,.03-.3.4.4,0,0,0-.211-.241l-9.021-4.737a.356.356,0,0,0-.3-.03.406.406,0,0,0-.241.211l-.754,1.448a.354.354,0,0,0-.05.148.347.347,0,0,0,.02.154.471.471,0,0,0,.181.241l1.569.814c1.539.815,2.293,1.72,2.263,2.745l-4.465-2.353a.356.356,0,0,0-.147-.049.352.352,0,0,0-.154.018.409.409,0,0,0-.241.211l-.573,1.116a.362.362,0,0,0-.049.148.355.355,0,0,0,.019.154.4.4,0,0,0,.211.241l4.646,2.444a2.524,2.524,0,0,1-1.84.784,5.538,5.538,0,0,1-2.564-.754l-1.207-.634a.347.347,0,0,0-.3-.03.473.473,0,0,0-.241.181l-.724,1.388a.352.352,0,0,0-.05.148.346.346,0,0,0,.02.154c.6,2.2,1.026,3.771,1.84,7.6a.385.385,0,0,0,.211.272l2.112,1.116a.362.362,0,0,0,.422-.03.328.328,0,0,0,.151-.392c-.754-3.711-1.086-5.069-1.629-7a6.169,6.169,0,0,0,3.621.392,4.543,4.543,0,0,0,2.745-1.81l1.81.965a.349.349,0,0,0,.147.049.355.355,0,0,0,.154-.019.4.4,0,0,0,.143-.081.4.4,0,0,0,.1-.131l.573-1.116A.464.464,0,0,0,717.21,623.571Z" transform="translate(-344.513 -308.027)" fill="#9ad2c1"/>
    <path id="Caminho_161" data-name="Caminho 161" d="M895.219,553.227H835.874a.6.6,0,0,1-.573-.573v-3.681a.6.6,0,0,1,.573-.573h59.345a.6.6,0,0,1,.4.176.6.6,0,0,1,.175.4v3.681a.575.575,0,0,1-.573.573Z" transform="translate(-435.692 -261.428)" fill="#fff"/>
    <path id="Caminho_162" data-name="Caminho 162" d="M904.459,587.327H859.173a.6.6,0,0,1-.573-.573v-3.681a.6.6,0,0,1,.573-.573h45.286a.6.6,0,0,1,.573.573v3.681a.575.575,0,0,1-.573.573Z" transform="translate(-451.961 -285.24)" fill="#fff"/>
    <path id="Caminho_163" data-name="Caminho 163" d="M911.333,908.207H880.65a1.75,1.75,0,0,1-1.75-1.75v-5.008a1.75,1.75,0,0,1,1.75-1.75h30.683a1.75,1.75,0,0,1,1.75,1.75v5.008a1.732,1.732,0,0,1-1.75,1.75Z" transform="translate(-466.137 -506.739)" fill="#9ad2c1"/>
    <path id="Caminho_164" data-name="Caminho 164" d="M933.607,668.8h-2.776v.6a6.638,6.638,0,0,0-3.832,6v46.251a6.638,6.638,0,0,0,3.832,6v.6h2.776a6.6,6.6,0,0,0,6.607-6.608V675.408a6.6,6.6,0,0,0-6.607-6.607Z" transform="translate(-499.724 -345.504)" fill="#9ad2c1"/>
    <path id="Caminho_165" data-name="Caminho 165" d="M933.607,668.8h-2.776v.6a6.638,6.638,0,0,0-3.832,6v46.251a6.638,6.638,0,0,0,3.832,6v.6h2.776a6.6,6.6,0,0,0,6.607-6.608V675.408a6.6,6.6,0,0,0-6.607-6.607Z" transform="translate(-499.724 -345.504)" fill="#fff" opacity="0.3"/>
    <path id="Caminho_166" data-name="Caminho 166" d="M924.306,728.267a6.6,6.6,0,0,1-6.607-6.608V675.408a6.607,6.607,0,1,1,13.215,0v46.251a6.6,6.6,0,0,1-6.607,6.608Z" transform="translate(-493.23 -345.504)" fill="#fff"/>
    <path id="Caminho_167" data-name="Caminho 167" d="M931.289,732.618a3.579,3.579,0,0,1-3.59-3.59V683.289a3.59,3.59,0,0,1,7.181,0v45.739a3.578,3.578,0,0,1-3.59,3.59Z" transform="translate(-500.213 -353.114)" fill="#3f4249"/>
    <path id="Caminho_168" data-name="Caminho 168" d="M885.943,692.824a23.36,23.36,0,0,0-5.672-.724H876.5v.3a22.7,22.7,0,0,0,0,44.773v.3h3.771a21.974,21.974,0,0,0,5.672-.724Z" transform="translate(-451.246 -361.773)" fill="#9ad2c1"/>
    <path id="Caminho_169" data-name="Caminho 169" d="M885.943,692.824a23.36,23.36,0,0,0-5.672-.724H876.5v.3a22.7,22.7,0,0,0,0,44.773v.3h3.771a21.974,21.974,0,0,0,5.672-.724Z" transform="translate(-451.246 -361.773)" opacity="0.3"/>
    <path id="Caminho_170" data-name="Caminho 170" d="M880,693.639a22.42,22.42,0,0,0-8.206-1.539A22.718,22.718,0,1,0,880,736Z" transform="translate(-445.299 -361.773)" fill="#9ad2c1"/>
    <path id="Caminho_171" data-name="Caminho 171" d="M889.376,707.4a18.675,18.675,0,1,0,0,33.55Z" transform="translate(-454.679 -371.13)" opacity="0.3"/>
    <path id="Caminho_172" data-name="Caminho 172" d="M916.613,748.474a.385.385,0,0,0-.3-.121h-2.172a4.526,4.526,0,0,0-.815-1.81h2.957a.42.42,0,0,0,.163-.03.41.41,0,0,0,.138-.091.416.416,0,0,0,.091-.138.41.41,0,0,0,.03-.163v-1.3a.413.413,0,0,0-.121-.3.413.413,0,0,0-.3-.121H905.751a.414.414,0,0,0-.3.121.41.41,0,0,0-.091.138.415.415,0,0,0-.029.163v1.69a.3.3,0,0,0,.12.271.371.371,0,0,0,.123.089.376.376,0,0,0,.148.032h1.84c1.78,0,2.9.483,3.379,1.418h-5.219a.414.414,0,0,0-.3.121.412.412,0,0,0-.121.3v1.3a.414.414,0,0,0,.422.422h5.4a2.387,2.387,0,0,1-1.3,1.569,5.66,5.66,0,0,1-2.685.543h-1.418a.3.3,0,0,0-.272.121.367.367,0,0,0-.12.272v1.6a.3.3,0,0,0,.12.272c1.629,1.72,2.745,2.957,5.34,6.034a.42.42,0,0,0,.3.151h2.474a.365.365,0,0,0,.362-.241.325.325,0,0,0-.06-.422c-2.474-3.017-3.439-4.1-4.827-5.612a6.663,6.663,0,0,0,3.5-1.388,4.616,4.616,0,0,0,1.629-2.957h2.112a.411.411,0,0,0,.163-.03.411.411,0,0,0,.229-.23.41.41,0,0,0,.03-.163v-1.3a.178.178,0,0,0-.091-.211Z" transform="translate(-484.571 -398.295)" fill="#9ad2c1"/>
    <path id="Caminho_173" data-name="Caminho 173" d="M864.582,724.076A18.688,18.688,0,0,1,882.2,705.43c-.332-.03-.694-.03-1.026-.03a18.675,18.675,0,1,0,0,37.351c.332,0,.694,0,1.026-.03a18.645,18.645,0,0,1-17.619-18.645Z" transform="translate(-454.684 -371.061)" opacity="0.2"/>
    <path id="Caminho_174" data-name="Caminho 174" d="M922.414,748.474a.385.385,0,0,0-.3-.121H919.94a4.528,4.528,0,0,0-.815-1.81h2.957a.42.42,0,0,0,.163-.03.407.407,0,0,0,.138-.091.415.415,0,0,0,.091-.138.41.41,0,0,0,.03-.163v-1.3a.411.411,0,0,0-.121-.3.412.412,0,0,0-.3-.121h-10.53a.413.413,0,0,0-.3.121.412.412,0,0,0-.091.138.416.416,0,0,0-.029.163v1.69a.3.3,0,0,0,.024.151.3.3,0,0,0,.1.12.367.367,0,0,0,.271.121h1.841c1.78,0,2.9.483,3.379,1.418h-5.22a.418.418,0,0,0-.163.03.414.414,0,0,0-.138.091.406.406,0,0,0-.091.138.412.412,0,0,0-.03.163v1.3a.413.413,0,0,0,.259.392.416.416,0,0,0,.163.03h5.4a2.389,2.389,0,0,1-1.3,1.569,5.659,5.659,0,0,1-2.685.543h-1.418a.3.3,0,0,0-.152.024.3.3,0,0,0-.12.1.369.369,0,0,0-.121.272v1.6a.3.3,0,0,0,.024.151.306.306,0,0,0,.1.12c1.629,1.72,2.746,2.957,5.34,6.034a.417.417,0,0,0,.135.107.424.424,0,0,0,.167.044h2.474a.365.365,0,0,0,.362-.241.326.326,0,0,0-.06-.422c-2.474-3.017-3.439-4.1-4.827-5.612a6.664,6.664,0,0,0,3.5-1.388,4.616,4.616,0,0,0,1.629-2.957h2.112a.414.414,0,0,0,.3-.121.416.416,0,0,0,.091-.138.41.41,0,0,0,.03-.163v-1.3a.178.178,0,0,0-.091-.211Z" transform="translate(-488.621 -398.295)" fill="#9ad2c1"/>
    <path id="Caminho_175" data-name="Caminho 175" d="M922.414,748.474a.385.385,0,0,0-.3-.121H919.94a4.528,4.528,0,0,0-.815-1.81h2.957a.42.42,0,0,0,.163-.03.407.407,0,0,0,.138-.091.415.415,0,0,0,.091-.138.41.41,0,0,0,.03-.163v-1.3a.411.411,0,0,0-.121-.3.412.412,0,0,0-.3-.121h-10.53a.413.413,0,0,0-.3.121.412.412,0,0,0-.091.138.416.416,0,0,0-.029.163v1.69a.3.3,0,0,0,.024.151.3.3,0,0,0,.1.12.367.367,0,0,0,.271.121h1.841c1.78,0,2.9.483,3.379,1.418h-5.22a.418.418,0,0,0-.163.03.414.414,0,0,0-.138.091.406.406,0,0,0-.091.138.412.412,0,0,0-.03.163v1.3a.413.413,0,0,0,.259.392.416.416,0,0,0,.163.03h5.4a2.389,2.389,0,0,1-1.3,1.569,5.659,5.659,0,0,1-2.685.543h-1.418a.3.3,0,0,0-.152.024.3.3,0,0,0-.12.1.369.369,0,0,0-.121.272v1.6a.3.3,0,0,0,.024.151.306.306,0,0,0,.1.12c1.629,1.72,2.746,2.957,5.34,6.034a.417.417,0,0,0,.135.107.424.424,0,0,0,.167.044h2.474a.365.365,0,0,0,.362-.241.326.326,0,0,0-.06-.422c-2.474-3.017-3.439-4.1-4.827-5.612a6.664,6.664,0,0,0,3.5-1.388,4.616,4.616,0,0,0,1.629-2.957h2.112a.414.414,0,0,0,.3-.121.416.416,0,0,0,.091-.138.41.41,0,0,0,.03-.163v-1.3a.178.178,0,0,0-.091-.211Z" transform="translate(-488.621 -398.295)" opacity="0.3"/>
    <path id="Caminho_176" data-name="Caminho 176" d="M916.613,748.474a.385.385,0,0,0-.3-.121h-2.172a4.526,4.526,0,0,0-.815-1.81h2.957a.42.42,0,0,0,.163-.03.41.41,0,0,0,.138-.091.416.416,0,0,0,.091-.138.41.41,0,0,0,.03-.163v-1.3a.413.413,0,0,0-.121-.3.413.413,0,0,0-.3-.121H905.751a.414.414,0,0,0-.3.121.41.41,0,0,0-.091.138.415.415,0,0,0-.029.163v1.69a.3.3,0,0,0,.12.271.371.371,0,0,0,.123.089.376.376,0,0,0,.148.032h1.84c1.78,0,2.9.483,3.379,1.418h-5.219a.414.414,0,0,0-.3.121.412.412,0,0,0-.121.3v1.3a.414.414,0,0,0,.422.422h5.4a2.387,2.387,0,0,1-1.3,1.569,5.66,5.66,0,0,1-2.685.543h-1.418a.3.3,0,0,0-.272.121.367.367,0,0,0-.12.272v1.6a.3.3,0,0,0,.12.272c1.629,1.72,2.745,2.957,5.34,6.034a.42.42,0,0,0,.3.151h2.474a.365.365,0,0,0,.362-.241.325.325,0,0,0-.06-.422c-2.474-3.017-3.439-4.1-4.827-5.612a6.663,6.663,0,0,0,3.5-1.388,4.616,4.616,0,0,0,1.629-2.957h2.112a.411.411,0,0,0,.163-.03.411.411,0,0,0,.229-.23.41.41,0,0,0,.03-.163v-1.3a.178.178,0,0,0-.091-.211Z" transform="translate(-484.571 -398.295)" fill="#9ad2c1"/>
    <path id="Caminho_177" data-name="Caminho 177" d="M944.758,690.1H941.8v46.583h2.957Z" transform="translate(-510.06 -360.377)" fill="#263238" opacity="0.3"/>
    <path id="Caminho_178" data-name="Caminho 178" d="M609.705,964.568H597.516a2.895,2.895,0,0,1-2.866-2.5L591.3,938.2h18.042l3.228,23.05a2.879,2.879,0,0,1-2.866,3.319Z" transform="translate(-265.308 -533.623)" fill="#3f4249"/>
    <path id="Caminho_179" data-name="Caminho 179" d="M397.1,964.568H409.29a2.895,2.895,0,0,0,2.866-2.5l3.349-23.865H397.463l-3.228,23.05a2.915,2.915,0,0,0,2.866,3.319Z" transform="translate(-127.678 -533.623)" fill="#3f4249"/>
    <path id="Caminho_180" data-name="Caminho 180" d="M397.1,964.568H409.29a2.895,2.895,0,0,0,2.866-2.5l3.349-23.865H397.463l-3.228,23.05a2.915,2.915,0,0,0,2.866,3.319Z" transform="translate(-127.678 -533.623)" opacity="0.2"/>
    <path id="Caminho_181" data-name="Caminho 181" d="M401.508,962.064l3.349-23.865h-7.392l-3.228,23.05a2.893,2.893,0,0,0,2.866,3.289h1.539a2.845,2.845,0,0,0,2.866-2.474Z" transform="translate(-127.679 -533.623)" fill="#3f4249"/>
    <path id="Caminho_182" data-name="Caminho 182" d="M609.705,964.568H597.516a2.895,2.895,0,0,1-2.866-2.5L591.3,938.2h18.042l3.228,23.05a2.879,2.879,0,0,1-2.866,3.319Z" transform="translate(-265.308 -533.623)" opacity="0.2"/>
    <path id="Caminho_183" data-name="Caminho 183" d="M603.279,961.25,600.05,938.2H591.3l3.349,23.865a2.918,2.918,0,0,0,2.866,2.5h2.9a2.9,2.9,0,0,0,1.2-.268,2.931,2.931,0,0,0,.984-.742,2.911,2.911,0,0,0,.681-2.308Z" transform="translate(-265.308 -533.623)" fill="#3f4249"/>
    <path id="Caminho_184" data-name="Caminho 184" d="M317.5,964.568h12.189a2.895,2.895,0,0,0,2.866-2.5l3.349-23.865H317.864l-3.228,23.05a2.914,2.914,0,0,0,2.866,3.319Z" transform="translate(-72.094 -533.623)" fill="#3f4249"/>
    <path id="Caminho_185" data-name="Caminho 185" d="M530.1,964.568H517.914a2.894,2.894,0,0,1-2.866-2.5L511.7,938.2h18.042l3.228,23.05a2.879,2.879,0,0,1-2.866,3.319Z" transform="translate(-209.722 -533.623)" fill="#3f4249"/>
    <path id="Caminho_186" data-name="Caminho 186" d="M530.1,964.568H517.914a2.894,2.894,0,0,1-2.866-2.5L511.7,938.2h18.042l3.228,23.05a2.879,2.879,0,0,1-2.866,3.319Z" transform="translate(-209.722 -533.623)" opacity="0.2"/>
    <path id="Caminho_187" data-name="Caminho 187" d="M317.5,964.568h12.189a2.895,2.895,0,0,0,2.866-2.5l3.349-23.865H317.864l-3.228,23.05a2.914,2.914,0,0,0,2.866,3.319Z" transform="translate(-72.094 -533.623)" opacity="0.2"/>
    <path id="Caminho_188" data-name="Caminho 188" d="M341.543,730.3c4.167,0,7.543-5.551,7.543-12.4s-3.376-12.4-7.543-12.4S334,711.051,334,717.9,337.376,730.3,341.543,730.3Z" transform="translate(-85.635 -371.13)" fill="#3f4249"/>
    <path id="Caminho_189" data-name="Caminho 189" d="M341.543,730.3c4.167,0,7.543-5.551,7.543-12.4s-3.376-12.4-7.543-12.4S334,711.051,334,717.9,337.376,730.3,341.543,730.3Z" transform="translate(-85.635 -371.13)" opacity="0.3"/>
    <path id="Caminho_190" data-name="Caminho 190" d="M709.258,845.936c-.422,0-.875-.03-1.327-.06a1.572,1.572,0,0,1-1.448-1.72,1.59,1.59,0,0,1,1.72-1.448,10.349,10.349,0,0,0,4.737-.633,9.513,9.513,0,0,1-3.56-5.1c-.965-3.741.875-6.4,3.2-7.06,2.263-.634,5.25.483,6.517,4.526a8.561,8.561,0,0,1-.422,6.668,12.613,12.613,0,0,0,5.4-.483,1.605,1.605,0,0,1,.905,3.077,14.578,14.578,0,0,1-8.659.151A12.068,12.068,0,0,1,709.258,845.936Zm4.525-13c-.121,0-.211.03-.332.03-.815.241-1.478,1.328-1,3.2a6.774,6.774,0,0,0,3.138,3.862,5.316,5.316,0,0,0,.452-4.646C715.5,833.657,714.537,832.933,713.783,832.933Z" transform="translate(-345.733 -457.894)" fill="#3f4249"/>
    <g id="Grupo_6" data-name="Grupo 6" transform="translate(360.742 371.856)" opacity="0.5">
      <path id="Caminho_191" data-name="Caminho 191" d="M709.258,845.936c-.422,0-.875-.03-1.327-.06a1.572,1.572,0,0,1-1.448-1.72,1.59,1.59,0,0,1,1.72-1.448,10.349,10.349,0,0,0,4.737-.633,9.513,9.513,0,0,1-3.56-5.1c-.965-3.741.875-6.4,3.2-7.06,2.263-.634,5.25.483,6.517,4.526a8.561,8.561,0,0,1-.422,6.668,12.613,12.613,0,0,0,5.4-.483,1.605,1.605,0,0,1,.905,3.077,14.578,14.578,0,0,1-8.659.151A12.068,12.068,0,0,1,709.258,845.936Zm4.525-13c-.121,0-.211.03-.332.03-.815.241-1.478,1.328-1,3.2a6.774,6.774,0,0,0,3.138,3.862,5.316,5.316,0,0,0,.452-4.646C715.5,833.657,714.537,832.933,713.783,832.933Z" transform="translate(-706.475 -829.75)" opacity="0.5"/>
    </g>
    <path id="Caminho_192" data-name="Caminho 192" d="M368.232,808.128H315.313a39.614,39.614,0,0,1,0-79.227h52.919a39.614,39.614,0,0,1,0,79.227Z" transform="translate(-44.924 -387.471)" fill="#3f4249"/>
    <path id="Caminho_193" data-name="Caminho 193" d="M413.341,748.6a40.429,40.429,0,0,1-33.006,63.78H326.33a40.638,40.638,0,0,1-15.93-3.258,39.489,39.489,0,0,0,29.114,12.762h52.919A39.629,39.629,0,0,0,413.341,748.6Z" transform="translate(-69.156 -401.227)" opacity="0.2"/>
    <path id="Caminho_194" data-name="Caminho 194" d="M266.5,819.1h-3.982v1.3c-3.651,2.5-6.215,8.357-6.215,15.145s2.565,12.641,6.215,15.146v1.3H266.5c5.642,0,10.2-7.362,10.2-16.443S272.14,819.1,266.5,819.1Z" transform="translate(-31.378 -450.457)" fill="#3f4249"/>
    <path id="Caminho_195" data-name="Caminho 195" d="M266.5,819.1h-3.982v1.3c-3.651,2.5-6.215,8.357-6.215,15.145s2.565,12.641,6.215,15.146v1.3H266.5c5.642,0,10.2-7.362,10.2-16.443S272.14,819.1,266.5,819.1Z" transform="translate(-31.378 -450.457)" opacity="0.3"/>
    <path id="Caminho_196" data-name="Caminho 196" d="M253.3,852.085c5.633,0,10.2-7.362,10.2-16.443S258.93,819.2,253.3,819.2s-10.2,7.362-10.2,16.443S247.665,852.085,253.3,852.085Z" transform="translate(-22.16 -450.526)" fill="#3f4249"/>
    <path id="Caminho_197" data-name="Caminho 197" d="M257.749,867.013c.8,0,1.448-2.112,1.448-4.707s-.649-4.707-1.448-4.707-1.448,2.112-1.448,4.707S256.95,867.013,257.749,867.013Z" transform="translate(-31.378 -477.341)" opacity="0.3"/>
    <path id="Caminho_198" data-name="Caminho 198" d="M278.348,867.013c.8,0,1.448-2.112,1.448-4.707s-.649-4.707-1.448-4.707-1.448,2.112-1.448,4.707S277.549,867.013,278.348,867.013Z" transform="translate(-45.763 -477.341)" opacity="0.3"/>
    <path id="Caminho_199" data-name="Caminho 199" d="M353.624,788.292c1.282,0,2.323-2.012,2.323-4.5s-1.041-4.5-2.323-4.5-2.323,2.013-2.323,4.5S352.342,788.292,353.624,788.292Z" transform="translate(-97.716 -422.665)" opacity="0.3"/>
    <path id="Caminho_200" data-name="Caminho 200" d="M304.323,788.292c1.282,0,2.323-2.012,2.323-4.5s-1.041-4.5-2.323-4.5S302,781.322,302,783.8,303.041,788.292,304.323,788.292Z" transform="translate(-63.29 -422.665)" opacity="0.3"/>
    <path id="Caminho_201" data-name="Caminho 201" d="M412.66,723.24a19.874,19.874,0,0,0,.724-5.34c0-6.849-3.379-12.4-7.543-12.4s-7.543,5.552-7.543,12.4a19.108,19.108,0,0,0,.181,2.685Z" transform="translate(-130.535 -371.13)" fill="#3f4249"/>
    <path id="Caminho_202" data-name="Caminho 202" d="M413.629,726.272a.558.558,0,0,0,.609-.307.553.553,0,0,0,.055-.237c.03-1.388-.03-3.831-.03-4.375,0-2.353-1.3-4.254-2.866-4.254s-2.866,1.9-2.866,4.254c0,.272-.03,2.474-.03,3.47a.549.549,0,0,0,.453.543Z" transform="translate(-137.658 -379.231)" opacity="0.3"/>
    <g id="Grupo_7" data-name="Grupo 7" transform="translate(267.674 341.181)" opacity="0.2">
      <path id="Caminho_203" data-name="Caminho 203" d="M398.241,734.178a.243.243,0,0,1-.093-.018.24.24,0,0,1-.079-.052.243.243,0,0,1-.052-.078.246.246,0,0,1-.017-.093,39.992,39.992,0,0,1,.6-5.672.249.249,0,0,1,.2-.186.248.248,0,0,1,.25.118.244.244,0,0,1,.033.091.25.25,0,0,1,0,.1,36.084,36.084,0,0,0-.573,5.582.266.266,0,0,1-.272.211Z" transform="translate(-398 -728.076)" opacity="0.2"/>
    </g>
    <path id="Caminho_204" data-name="Caminho 204" d="M449.391,737.2h.6a15.489,15.489,0,0,0-3.651-8.3H445.8a18.891,18.891,0,0,1,.724,5.34v.03a2.9,2.9,0,0,0,2.866,2.927Z" transform="translate(-163.705 -387.471)" opacity="0.3"/>
    <path id="Caminho_205" data-name="Caminho 205" d="M497.174,771.061H450.531a1.931,1.931,0,1,1,0-3.862h46.644a1.931,1.931,0,1,1,0,3.862Z" transform="translate(-165.66 -414.215)" fill="#3f4249"/>
    <path id="Caminho_206" data-name="Caminho 206" d="M497.174,771.061H450.531a1.931,1.931,0,1,1,0-3.862h46.644a1.931,1.931,0,1,1,0,3.862Z" transform="translate(-165.66 -414.215)" opacity="0.5"/>
    <path id="Caminho_207" data-name="Caminho 207" d="M465.758,707.45h39.855a22.006,22.006,0,0,0-23.171-31.106l-3.62.543.06.3a22.024,22.024,0,0,0-14.934,24.166,21.609,21.609,0,0,0,1.81,6.094Z" transform="translate(-176.211 -350.603)" fill="#9ad2c1"/>
    <path id="Caminho_208" data-name="Caminho 208" d="M465.758,707.45h39.855a22.006,22.006,0,0,0-23.171-31.106l-3.62.543.06.3a22.024,22.024,0,0,0-14.934,24.166,21.609,21.609,0,0,0,1.81,6.094Z" transform="translate(-176.211 -350.603)" opacity="0.3"/>
    <path id="Caminho_209" data-name="Caminho 209" d="M457.5,708.782h40.187a21.725,21.725,0,0,0,1.659-12.219,22.009,22.009,0,0,0-43.536,6.487,24.183,24.183,0,0,0,1.69,5.732Z" transform="translate(-170.552 -351.936)" fill="#9ad2c1"/>
    <path id="Caminho_210" data-name="Caminho 210" d="M524.256,728.8a.348.348,0,0,0-.3-.06l-2.082.3a4.073,4.073,0,0,0-1.026-1.629l2.836-.422a.406.406,0,0,0,.272-.151.349.349,0,0,0,.06-.3l-.181-1.237a.407.407,0,0,0-.151-.271.35.35,0,0,0-.3-.06L513.3,726.481a.407.407,0,0,0-.272.151.358.358,0,0,0-.065.144.353.353,0,0,0,0,.158l.242,1.6a.412.412,0,0,0,.151.241.349.349,0,0,0,.3.06l1.75-.271c1.72-.241,2.866.03,3.439.875l-5.008.754a.409.409,0,0,0-.272.151.352.352,0,0,0-.065.144.349.349,0,0,0,0,.158l.181,1.237a.408.408,0,0,0,.151.272.349.349,0,0,0,.3.06l5.189-.784a2.353,2.353,0,0,1-1.026,1.689,5.306,5.306,0,0,1-2.5.905l-1.358.211a.415.415,0,0,0-.241.151.35.35,0,0,0-.06.3l.242,1.539a.412.412,0,0,0,.151.241c1.81,1.418,3.077,2.444,5.974,5.038.151,0,2.685-.241,2.685-.241a.391.391,0,0,0,.332-.272.3.3,0,0,0-.121-.392c-2.806-2.534-3.892-3.439-5.431-4.676a6.032,6.032,0,0,0,3.138-1.84,4.614,4.614,0,0,0,1.146-3.077l2.022-.3a.406.406,0,0,0,.271-.151.349.349,0,0,0,.06-.3l-.181-1.237a1.283,1.283,0,0,0-.181-.211Z" transform="translate(-210.603 -384.72)" fill="#9ad2c1"/>
    <path id="Caminho_211" data-name="Caminho 211" d="M470.905,717.393h31.407a18.081,18.081,0,1,0-33.58-6.275,17.84,17.84,0,0,0,2.172,6.275Z" transform="translate(-179.578 -360.547)" opacity="0.3"/>
    <path id="Caminho_212" data-name="Caminho 212" d="M513.406,728.735a.352.352,0,0,0,.3.06l1.75-.272c1.72-.241,2.866.03,3.439.875l-5.008.754a.408.408,0,0,0-.272.151.354.354,0,0,0-.065.144.347.347,0,0,0,0,.158l.181,1.237a.409.409,0,0,0,.151.272.351.351,0,0,0,.3.06l5.189-.784a2.36,2.36,0,0,1-1.026,1.69,5.314,5.314,0,0,1-2.5.905l-1.358.211a.41.41,0,0,0-.241.151.349.349,0,0,0-.06.3l.241,1.539a.414.414,0,0,0,.151.241c1.81,1.418,3.077,2.444,5.974,5.039h1l1.689-.242a.393.393,0,0,0,.332-.271.3.3,0,0,0-.121-.392c-2.806-2.534-3.892-3.439-5.431-4.676a6.037,6.037,0,0,0,3.138-1.84,4.617,4.617,0,0,0,1.146-3.077l2.052-.3a.407.407,0,0,0,.271-.151.349.349,0,0,0,.06-.3l-.181-1.237a.406.406,0,0,0-.151-.271.349.349,0,0,0-.3-.06l-2.082.3a4.074,4.074,0,0,0-1.026-1.629l2.836-.422a.409.409,0,0,0,.272-.151.35.35,0,0,0,.06-.3l-.181-1.237a.407.407,0,0,0-.151-.272.355.355,0,0,0-.144-.065.348.348,0,0,0-.158.005l-10.077,1.508a.406.406,0,0,0-.272.151.35.35,0,0,0-.06.3l.241,1.6a.275.275,0,0,0,.091.3Z" transform="translate(-210.674 -384.65)" opacity="0.3"/>
    <path id="Caminho_213" data-name="Caminho 213" d="M470.9,717.5h2.142a18.1,18.1,0,0,1,11.887-27c-.332.03-.664.06-1,.121A18.073,18.073,0,0,0,468.73,711.2,17.805,17.805,0,0,0,470.9,717.5Z" transform="translate(-179.575 -360.656)" opacity="0.2"/>
    <path id="Caminho_214" data-name="Caminho 214" d="M517.631,742.026a.319.319,0,0,0,.272-.272.3.3,0,0,0-.121-.392c-2.806-2.534-3.892-3.44-5.431-4.676a6.035,6.035,0,0,0,3.138-1.84,4.618,4.618,0,0,0,1.146-3.077l2.021-.3a.406.406,0,0,0,.272-.151.348.348,0,0,0,.065-.143.352.352,0,0,0,0-.158l-.181-1.237a.409.409,0,0,0-.151-.271.347.347,0,0,0-.144-.065.351.351,0,0,0-.158,0l-2.082.3a4.078,4.078,0,0,0-1.026-1.629l2.836-.423a.409.409,0,0,0,.272-.151.352.352,0,0,0,.06-.3l-.181-1.237a.409.409,0,0,0-.151-.271.352.352,0,0,0-.3-.06L507.7,727.182a.407.407,0,0,0-.271.151.35.35,0,0,0-.06.3l.241,1.6a.411.411,0,0,0,.151.241.343.343,0,0,0,.144.065.349.349,0,0,0,.158,0l1.75-.272c1.72-.241,2.866.03,3.44.875l-5.009.754a.408.408,0,0,0-.272.151.35.35,0,0,0-.06.3l.181,1.237a.406.406,0,0,0,.151.271.341.341,0,0,0,.144.065.35.35,0,0,0,.158,0l5.189-.784a2.358,2.358,0,0,1-1.026,1.69,5.308,5.308,0,0,1-2.5.905l-1.358.211a.413.413,0,0,0-.241.151.351.351,0,0,0-.06.3l.241,1.539a.411.411,0,0,0,.151.241c1.75,1.358,2.987,2.384,5.672,4.767h3.017Z" transform="translate(-206.693 -385.21)" fill="#9ad2c1"/>
    <path id="Caminho_215" data-name="Caminho 215" d="M499.135,773.7H448.6a1.937,1.937,0,0,0,1.931,1.9h46.644a1.964,1.964,0,0,0,1.961-1.9Z" transform="translate(-165.66 -418.753)" opacity="0.5"/>
    <path id="Caminho_216" data-name="Caminho 216" d="M589.02,1025.443H244.172a.269.269,0,0,1-.192-.079.273.273,0,0,1,0-.386.282.282,0,0,1,.192-.079H589.02a.284.284,0,0,1,.193.079.272.272,0,0,1-.193.464Z" transform="translate(-22.719 -594.166)" fill="#b2b6bb"/>
    <path id="Caminho_217" data-name="Caminho 217" d="M739.289,771.85a1.443,1.443,0,0,1-1.146-1.69.356.356,0,0,0-.694-.151,1.443,1.443,0,0,1-1.689,1.147.356.356,0,0,0-.4.276.356.356,0,0,0,.247.417,1.442,1.442,0,0,1,1.146,1.69.356.356,0,0,0,.694.151,1.443,1.443,0,0,1,1.69-1.146.374.374,0,0,0,.422-.272.392.392,0,0,0-.272-.422Z" transform="translate(-365.899 -415.999)" fill="#9ad2c1"/>
    <path id="Caminho_218" data-name="Caminho 218" d="M739.289,771.85a1.443,1.443,0,0,1-1.146-1.69.356.356,0,0,0-.694-.151,1.443,1.443,0,0,1-1.689,1.147.356.356,0,0,0-.4.276.356.356,0,0,0,.247.417,1.442,1.442,0,0,1,1.146,1.69.356.356,0,0,0,.694.151,1.443,1.443,0,0,1,1.69-1.146.374.374,0,0,0,.422-.272.392.392,0,0,0-.272-.422Z" transform="translate(-365.899 -415.999)" fill="#fff" opacity="0.5"/>
    <path id="Caminho_219" data-name="Caminho 219" d="M656.672,570.151a1.441,1.441,0,0,1-1.146-1.69.356.356,0,0,0-.534-.357.355.355,0,0,0-.16.206,1.443,1.443,0,0,1-1.69,1.147.356.356,0,0,0-.39.133.355.355,0,0,0-.061.278.357.357,0,0,0,.3.283,1.442,1.442,0,0,1,1.147,1.69.356.356,0,0,0,.133.389.361.361,0,0,0,.133.059.356.356,0,0,0,.379-.161.36.36,0,0,0,.049-.136,1.441,1.441,0,0,1,1.69-1.147.375.375,0,0,0,.422-.271.322.322,0,0,0,.015-.142.32.32,0,0,0-.151-.235.314.314,0,0,0-.136-.045Z" transform="translate(-308.172 -275.153)" fill="#9ad2c1"/>
    <path id="Caminho_220" data-name="Caminho 220" d="M656.672,570.151a1.441,1.441,0,0,1-1.146-1.69.356.356,0,0,0-.534-.357.355.355,0,0,0-.16.206,1.443,1.443,0,0,1-1.69,1.147.356.356,0,0,0-.39.133.355.355,0,0,0-.061.278.357.357,0,0,0,.3.283,1.442,1.442,0,0,1,1.147,1.69.356.356,0,0,0,.133.389.361.361,0,0,0,.133.059.356.356,0,0,0,.379-.161.36.36,0,0,0,.049-.136,1.441,1.441,0,0,1,1.69-1.147.375.375,0,0,0,.422-.271.322.322,0,0,0,.015-.142.32.32,0,0,0-.151-.235.314.314,0,0,0-.136-.045Z" transform="translate(-308.172 -275.153)" fill="#fff" opacity="0.5"/>
    <path id="Caminho_221" data-name="Caminho 221" d="M892.09,651.15a1.442,1.442,0,0,1-1.146-1.69.356.356,0,0,0-.694-.151,1.443,1.443,0,0,1-1.69,1.146.356.356,0,0,0-.151.694,1.442,1.442,0,0,1,1.147,1.69.358.358,0,0,0-.012.145.354.354,0,0,0,.047.137.349.349,0,0,0,.1.107.354.354,0,0,0,.278.06.359.359,0,0,0,.234-.163.36.36,0,0,0,.049-.136,1.441,1.441,0,0,1,1.689-1.146.374.374,0,0,0,.423-.272.351.351,0,0,0-.047-.269.353.353,0,0,0-.1-.1.343.343,0,0,0-.128-.054Z" transform="translate(-472.599 -331.715)" fill="#9ad2c1"/>
    <path id="Caminho_222" data-name="Caminho 222" d="M535.389,643.932a1.442,1.442,0,0,1-1.146-1.69.356.356,0,0,0-.644-.287.358.358,0,0,0-.049.136,1.442,1.442,0,0,1-1.69,1.146.356.356,0,0,0-.151.694,1.442,1.442,0,0,1,1.146,1.69.36.36,0,0,0-.012.145.357.357,0,0,0,.423.305.357.357,0,0,0,.134-.057.356.356,0,0,0,.149-.242,1.443,1.443,0,0,1,1.69-1.146.374.374,0,0,0,.422-.272.329.329,0,0,0-.272-.422Z" transform="translate(-223.516 -326.639)" fill="#9ad2c1"/>
    <path id="Caminho_223" data-name="Caminho 223" d="M641.116,696.328a.812.812,0,1,0-.312-.062A.813.813,0,0,0,641.116,696.328Z" transform="translate(-299.524 -363.588)" fill="#9ad2c1"/>
    <path id="Caminho_224" data-name="Caminho 224" d="M836.116,736.828a.812.812,0,1,0-.312-.062A.813.813,0,0,0,836.116,736.828Z" transform="translate(-435.692 -391.869)" fill="#9ad2c1"/>
    <path id="Caminho_225" data-name="Caminho 225" d="M526.69,331.5H475.4v42.57h51.29Z" transform="translate(-184.374 -109.968)" fill="#9ad2c1"/>
    <path id="Caminho_226" data-name="Caminho 226" d="M526.69,331.5H475.4v42.57h51.29Z" transform="translate(-184.374 -109.968)" fill="#fff" opacity="0.8"/>
    <path id="Caminho_227" data-name="Caminho 227" d="M531.488,344.2H487.5v34.907h43.989Z" transform="translate(-192.824 -118.835)" fill="#fff"/>
    <path id="Caminho_228" data-name="Caminho 228" d="M646.516,331.5H645.4v42.57h1.116Z" transform="translate(-303.085 -109.968)" fill="#b2b6bb"/>
    <path id="Caminho_229" data-name="Caminho 229" d="M550.721,442.113V439.73H541.76v2.384Z" transform="translate(-230.713 -185.544)" fill="#9ad2c1"/>
    <path id="Caminho_230" data-name="Caminho 230" d="M531.741,380.681a10.741,10.741,0,1,0-7.595-3.146A10.742,10.742,0,0,0,531.741,380.681Z" transform="translate(-216.217 -129.31)" opacity="0.2"/>
    <path id="Caminho_231" data-name="Caminho 231" d="M742.331,260.4H713.7v39.915h28.632Z" transform="translate(-350.778 -60.319)" fill="#fff"/>
    <path id="Caminho_232" data-name="Caminho 232" d="M808.551,300.386h.739V260.471h-.724Z" transform="translate(-417.012 -60.369)" fill="#b2b6bb"/>
    <path id="Caminho_233" data-name="Caminho 233" d="M747.051,273.1H725.6v32.313h21.451Z" transform="translate(-359.088 -69.187)" fill="#dadddf"/>
    <path id="Caminho_234" data-name="Caminho 234" d="M1259.85,968.584a10.472,10.472,0,0,1,.727,2.444l2.036,9.015a8.869,8.869,0,0,1-.118,3.81,2.445,2.445,0,0,1-2.356,1.834h-2.414a2.43,2.43,0,0,1-1.21-.323,2.389,2.389,0,0,1-.884-.884l-.175-.3a9.249,9.249,0,0,1-1.206-4.188l.03-8.447a8.18,8.18,0,0,1,.377-2.993Z" transform="translate(-728.242 -554.818)" fill="#9ad2c1"/>
    <path id="Caminho_235" data-name="Caminho 235" d="M1136.1,896.75l-2.821,17.363a32.476,32.476,0,0,0-.468,5.147l-5.672,10.237-6.369,3.171-1.629-2.239,7.038-12.246a7.163,7.163,0,0,0,.96-3.838l.495-15.734Z" transform="translate(-633.895 -504.68)" fill="#fc9d9d"/>
    <path id="Caminho_236" data-name="Caminho 236" d="M1120.136,957.529l-.986-1.659,7.036-12.24a7.768,7.768,0,0,0,.963-3.84l.2-6.689h6.981l-.06.845-3.868.522a.929.929,0,0,0-.815.814l-.754,5.615a15.02,15.02,0,0,1-1.659,4.245Z" transform="translate(-633.902 -530.063)" opacity="0.15"/>
    <path id="Caminho_237" data-name="Caminho 237" d="M1101.566,986.6a.748.748,0,0,0-.054.365.7.7,0,0,0,.12.344.726.726,0,0,0,.275.247.735.735,0,0,0,.356.091h6.894a6.616,6.616,0,0,0,5.129-2.444l4.423-5.41a.585.585,0,0,1,.646-.2.586.586,0,0,1,.4.543l.232,7.476h.842l1.047-7.271a15.863,15.863,0,0,0-1.337-8.988l-7.241,8.783a6.88,6.88,0,0,1-6.429,2.413l-3.346,2.034a3.758,3.758,0,0,0-1.958,2.012Z" transform="translate(-621.583 -556.779)" fill="#9ad2c1"/>
    <path id="Caminho_238" data-name="Caminho 238" d="M1250.35,911.727l7.591-.118-.814,14.69a26.789,26.789,0,0,0,.464,6.659l.845,4.305a2.956,2.956,0,0,1-.7,2.357,2.971,2.971,0,0,1-2.239,1.017H1255a2.979,2.979,0,0,1-2.966-2.878l.058-3.621a68.373,68.373,0,0,0-.465-9.132Z" transform="translate(-725.519 -515.055)" fill="#fc9d9d"/>
    <path id="Caminho_239" data-name="Caminho 239" d="M1183.155,564.65l1.134,4.652a133.752,133.752,0,0,1,3.548,37.713l-3.319,68.7-7.543.057-7.389-92.865a1.3,1.3,0,0,0-1.279-1.207,1.26,1.26,0,0,0-1.279,1.077l-14.207,93.006h-7.651l1.774-66.375q.348-12.825,1.484-25.6l.6-6.746,5.3-12.37Z" transform="translate(-652.072 -272.776)" fill="#3f4249"/>
    <path id="Caminho_240" data-name="Caminho 240" d="M1259.071,932.9l-.03.754-3.373.6a1.092,1.092,0,0,0-.872,1.074l.233,15.969c.03,1.309-.088,3.053,1.309,4.13a2.948,2.948,0,0,1-2.821-2.851l.057-3.62c.031-1.774,0-3.548-.114-5.322v-.03c-.087-1.249-.989-10.674-.989-10.674Z" transform="translate(-726.999 -529.923)" opacity="0.15"/>
    <path id="Caminho_241" data-name="Caminho 241" d="M1147.044,609.31q.349-12.826,1.484-25.6l.6-6.746,5.3-12.37h.084l7.069-.03,21.7-.057v.03l-21.7.057c0,2.909.6,5.874.552,8.87-.057,3.621-2.531,8.146-8.958,8.146l-4.852,94.071h-3.053Z" transform="translate(-652.142 -272.678)" opacity="0.2"/>
    <path id="Caminho_242" data-name="Caminho 242" d="M1208.235,404.471l-2.441-.522-13.963.115-1.831.525c1.572,6.426,2.619,21.871,2.966,50.548l12.479-.027C1205.387,447.9,1205.531,419.131,1208.235,404.471Z" transform="translate(-683.376 -160.559)" fill="#fff"/>
    <path id="Caminho_243" data-name="Caminho 243" d="M1231.67,458.679h2.589c-.057-7.039-.232-34.642,2.269-49.618C1231.96,423.078,1230.448,439.832,1231.67,458.679Z" transform="translate(-712.191 -164.128)" opacity="0.2"/>
    <path id="Caminho_244" data-name="Caminho 244" d="M1232.71,568.938c.145,2.715.172,2.764.407,5.527a8.506,8.506,0,0,0,8.448,7.763l7.1.35a108.727,108.727,0,0,0-3-12.129,11.881,11.881,0,0,1-1.454-3.43C1244.168,566.787,1232.679,568.968,1232.71,568.938Z" transform="translate(-713.2 -274.418)" opacity="0.2"/>
    <path id="Caminho_245" data-name="Caminho 245" d="M1174.48,576.2h28.532v-2.589H1174.48Z" transform="translate(-672.539 -279.032)"/>
    <path id="Caminho_246" data-name="Caminho 246" d="M1180.686,340.32c-4.625.205-8.2,4.568-7.971,9.772s4.16,9.25,8.786,9.051c2.908-.145,1.976-2.966,1.744-8.173S1181.935,344.77,1180.686,340.32Z" transform="translate(-671.299 -116.127)" fill="#21252b"/>
    <path id="Caminho_247" data-name="Caminho 247" d="M1221.568,364.458a8.41,8.41,0,1,0-9.353-7.618A8.523,8.523,0,0,0,1221.568,364.458Z" transform="translate(-698.867 -121.263)" fill="#21252b"/>
    <path id="Caminho_248" data-name="Caminho 248" d="M1207.83,370.459a1.153,1.153,0,0,1-.591-.371,1.137,1.137,0,0,1-.265-.645l-1.02-11.486-6.939-1.717-.027.377-1.02,7.678-.3,2.112-.38,2.878a1.122,1.122,0,0,1-.812.932l-2.474.667.7.6a10.861,10.861,0,0,0,14.075.057l.845-.7Z" transform="translate(-686.17 -127.244)" fill="#fc9d9d"/>
    <path id="Caminho_249" data-name="Caminho 249" d="M1198.905,341.513,1198,329.328l13.465-.088-.727,12.213a5.929,5.929,0,0,1-11.836.06Z" transform="translate(-688.963 -108.39)" fill="#fc9d9d"/>
    <path id="Caminho_250" data-name="Caminho 250" d="M1198.905,341.513,1198,329.328l13.465-.088-.727,12.213a5.929,5.929,0,0,1-11.836.06Z" transform="translate(-688.963 -108.39)" fill="#fc9d9d"/>
    <path id="Caminho_251" data-name="Caminho 251" d="M1228.313,356.543a.7.7,0,0,0-.432-.649.7.7,0,0,0-.4-.041.693.693,0,0,0-.549.549.7.7,0,0,0,.3.719.7.7,0,0,0,.389.118.7.7,0,0,0,.7-.7Z" transform="translate(-709.153 -126.964)" fill="#21252b"/>
    <path id="Caminho_252" data-name="Caminho 252" d="M1228.08,357.356a.155.155,0,0,0-.024-.08.144.144,0,0,0-.067-.053.138.138,0,0,0-.082-.008.144.144,0,0,0-.075.04.141.141,0,0,0-.039.074.133.133,0,0,0,.009.084.129.129,0,0,0,.051.065.145.145,0,0,0,.226-.12Z" transform="translate(-709.765 -127.922)" fill="#fff"/>
    <path id="Caminho_253" data-name="Caminho 253" d="M1210.28,356.543a.7.7,0,0,0-.431-.649.7.7,0,0,0-.763.151.7.7,0,0,0,.108,1.078.7.7,0,0,0,1.086-.58Z" transform="translate(-696.561 -126.964)" fill="#21252b"/>
    <path id="Caminho_254" data-name="Caminho 254" d="M1209.946,357.241a.164.164,0,0,0-.024-.083.147.147,0,0,0-.151-.065.142.142,0,0,0-.118.117.139.139,0,0,0,.009.086.153.153,0,0,0,.054.066.158.158,0,0,0,.085.024.137.137,0,0,0,.055-.011.127.127,0,0,0,.048-.031.14.14,0,0,0,.03-.047.118.118,0,0,0,.012-.055Z" transform="translate(-697.098 -127.837)" fill="#fff"/>
    <g id="Grupo_8" data-name="Grupo 8" transform="translate(514.797 231.055)" opacity="0.3">
      <path id="Caminho_255" data-name="Caminho 255" d="M1217.09,363.911a.847.847,0,0,1,.842-.845.2.2,0,0,1,.085.008.19.19,0,0,1,.075.042.184.184,0,0,1,.051.069.2.2,0,0,1,0,.169.185.185,0,0,1-.051.069.19.19,0,0,1-.075.042.2.2,0,0,1-.085.007.441.441,0,0,0-.169.032.469.469,0,0,0-.142.1.444.444,0,0,0-.094.143.483.483,0,0,0,0,.336.444.444,0,0,0,.094.142.465.465,0,0,0,.142.094.429.429,0,0,0,.169.03h.6a.212.212,0,0,1,.13.068.205.205,0,0,1,0,.272.21.21,0,0,1-.13.068h-.6a.843.843,0,0,1-.842-.842Z" transform="translate(-1217.09 -363.064)" opacity="0.3"/>
    </g>
    <path id="Caminho_256" data-name="Caminho 256" d="M1208.2,319.984l-1.077-.754c-.552.987-3.258,1.539-3.258,1.539l-.057-1.424s-6.719,1.207-9.353-4.333a3.571,3.571,0,0,1-3.259,2.878s.263,3-.785,3.693c-.495-1.306-1.4-2.181-1.888-4.07l-1.283-.525a1.675,1.675,0,0,0,.7-.708,1.693,1.693,0,0,0,.178-.978,8.382,8.382,0,0,1,3.343-7.709c4.8-3.982,14.515-2.471,15.154,4.13a1.892,1.892,0,0,0,.434.99,4.241,4.241,0,0,1,1.134,3.083,6.6,6.6,0,0,1-.32,1.892,2.011,2.011,0,0,0,.67,2.094Z" transform="translate(-681.449 -91.748)" fill="#21252b"/>
    <path id="Caminho_257" data-name="Caminho 257" d="M1195.118,353.995l.118-2.5c-.031-2.3-2.851-2.356-2.734-.057a2.635,2.635,0,0,0,2.383,2.5Z" transform="translate(-685.121 -122.706)" fill="#fc9d9d"/>
    <path id="Caminho_258" data-name="Caminho 258" d="M1196.194,353.147a.188.188,0,0,1-.045.136.2.2,0,0,1-.127.069.191.191,0,0,1-.12-.055.182.182,0,0,1-.054-.12,2.271,2.271,0,0,0-.088-.6.713.713,0,0,0-.262-.347c-.118-.06-.232-.03-.407.057a.083.083,0,0,1-.057.023.087.087,0,0,1-.061-.023c-.027,0-.057-.03-.084-.088a.183.183,0,0,1,0-.133.186.186,0,0,1,.087-.1.787.787,0,0,1,.67-.057.866.866,0,0,1,.438.552A1.969,1.969,0,0,1,1196.194,353.147Z" transform="translate(-686.78 -124.183)" opacity="0.3"/>
    <path id="Caminho_259" data-name="Caminho 259" d="M1198,359.6a.423.423,0,0,0-.076-.3.414.414,0,0,0-.262-.169.478.478,0,0,0-.021.932C1197.832,360.066,1197.991,359.861,1198,359.6Z" transform="translate(-688.471 -129.263)" fill="#9ad2c1"/>
    <path id="Caminho_260" data-name="Caminho 260" d="M1197.971,360.167a.286.286,0,0,1-.091.065.271.271,0,0,1-.111.02c-.205,0-.35-.2-.35-.465a.514.514,0,0,1,.033-.2.5.5,0,0,1,.111-.174.881.881,0,0,0-.057.262.4.4,0,0,0,0,.168.411.411,0,0,0,.066.154.431.431,0,0,0,.124.115.415.415,0,0,0,.157.058Z" transform="translate(-688.557 -129.457)" opacity="0.15"/>
    <path id="Caminho_261" data-name="Caminho 261" d="M1239.858,353.995l-.118-2.5c.03-2.3,2.851-2.356,2.734-.057a2.635,2.635,0,0,1-2.384,2.5Z" transform="translate(-718.11 -122.706)" fill="#fc9d9d"/>
    <path id="Caminho_262" data-name="Caminho 262" d="M1242.017,353.146a.19.19,0,0,0,.045.137.2.2,0,0,0,.126.068.189.189,0,0,0,.121-.054.185.185,0,0,0,.054-.121,5.089,5.089,0,0,1,.118-.6.487.487,0,0,1,.262-.347c.088-.06.232-.03.407.057a.083.083,0,0,0,.058.023.082.082,0,0,0,.057-.023c.03,0,.058-.03.088-.087a.183.183,0,0,0,0-.133.186.186,0,0,0-.091-.1.852.852,0,0,0-.7-.057.88.88,0,0,0-.289.228.9.9,0,0,0-.176.324,1.148,1.148,0,0,0-.087.688Z" transform="translate(-719.687 -124.183)" opacity="0.3"/>
    <path id="Caminho_263" data-name="Caminho 263" d="M1242.028,359.941a.487.487,0,0,0,.613-.488.475.475,0,0,0-.1-.28.493.493,0,0,0-.247-.167.486.486,0,0,0-.3.009.5.5,0,0,0-.238.182.481.481,0,0,0-.085.286C1241.675,359.739,1241.835,359.944,1242.028,359.941Z" transform="translate(-719.457 -129.161)" fill="#9ad2c1"/>
    <path id="Caminho_264" data-name="Caminho 264" d="M1242.06,360.167a.287.287,0,0,0,.09.065.271.271,0,0,0,.112.02c.205,0,.35-.2.35-.465a.512.512,0,0,0-.033-.2.5.5,0,0,0-.112-.174.859.859,0,0,1,.057.262.461.461,0,0,1,0,.168.41.41,0,0,1-.067.154.426.426,0,0,1-.124.115.412.412,0,0,1-.157.058Z" transform="translate(-719.73 -129.457)" opacity="0.15"/>
    <path id="Caminho_265" data-name="Caminho 265" d="M1217.446,372.42c.118,0,.145.087.118.175a2,2,0,0,1-3.62,0,.134.134,0,0,1-.006-.061.1.1,0,0,1,.021-.057.111.111,0,0,1,.045-.041.121.121,0,0,1,.057-.016Z" transform="translate(-700.091 -138.542)" fill="#fff"/>
    <path id="Caminho_266" data-name="Caminho 266" d="M1200.28,350.818a2.847,2.847,0,0,0,.172,1.281,2.819,2.819,0,0,0,4.329,1.243,2.814,2.814,0,0,0,.824-3.51,2.152,2.152,0,0,1,1.394.027,3.022,3.022,0,0,0-.233.905,2.817,2.817,0,1,0,3.053-2.558,2.774,2.774,0,0,0-2.646,1.306,2.6,2.6,0,0,0-1.744-.027,2.84,2.84,0,0,0-2.094-1.252,2.8,2.8,0,0,0-3.056,2.586Zm6.806-.057a2.474,2.474,0,1,1,.567,1.8,2.47,2.47,0,0,1-.567-1.8Zm-6.486.03a2.479,2.479,0,1,1,.57,1.8,2.473,2.473,0,0,1-.57-1.8Z" transform="translate(-690.545 -121.623)" fill="#fff"/>
    <path id="Caminho_267" data-name="Caminho 267" d="M1213.2,384.1a.208.208,0,0,0-.048-.078.2.2,0,0,0-.076-.051.21.21,0,0,0-.091-.014.2.2,0,0,0-.087.026,5.386,5.386,0,0,1-2.154.437h-.175a6.864,6.864,0,0,1-2.528-.552,6.075,6.075,0,0,1-1.508-1.02l-.3,2.112a6.507,6.507,0,0,0,2.037.232,4.991,4.991,0,0,0,1.656-.347,6.7,6.7,0,0,0,.787.057,5.857,5.857,0,0,0,2.327-.465.4.4,0,0,0,.124-.149A.412.412,0,0,0,1213.2,384.1Z" transform="translate(-694.71 -145.825)" opacity="0.15"/>
    <path id="Caminho_268" data-name="Caminho 268" d="M1250.573,407.34l-9.956-1.949c-3.62,15.155-4.769,34.669-3,55.5a9.051,9.051,0,0,0,9.015,8.258h4.48a.57.57,0,0,0,.432-.205.588.588,0,0,0,.111-.217.554.554,0,0,0,.009-.244c-1.1-5.382-2.112-10.5-2.878-14.458a50.314,50.314,0,0,1-.552-15.209L1250.214,422l6.194-6.864C1256.245,411.528,1254.209,408.242,1250.573,407.34Z" transform="translate(-716.057 -161.566)" fill="#9ad2c1"/>
    <path id="Caminho_269" data-name="Caminho 269" d="M1157.681,407.463c-3.578,1.134-5.352,4.275-5.322,8.028l1.508,2.414,1.572,16.4a89.4,89.4,0,0,1-.2,18.9l-1.744,14.8a1.247,1.247,0,0,0,.3.952,1.225,1.225,0,0,0,.905.418h4.915a7.667,7.667,0,0,0,7.618-7.543c.407-26.408-1.687-50.288-3.141-56.192Z" transform="translate(-657.092 -161.747)" fill="#9ad2c1"/>
    <path id="Caminho_270" data-name="Caminho 270" d="M1206.462,491.086l-.03,6.312-11.163-1.744-3.255.3a14.4,14.4,0,0,1-5.129-.407.726.726,0,0,1-.495-.6.706.706,0,0,1,.468-.686.7.7,0,0,1,.29-.041l.3.027-.407-.027a.861.861,0,0,1-.516-.26.85.85,0,0,1-.238-.527.857.857,0,0,1,.48-.845.86.86,0,0,1,.332-.085h0a.93.93,0,0,1-.959-.845.874.874,0,0,1,.727-.959l.3-.057s-.145.03-.35.057a.668.668,0,0,1-.733-.33.669.669,0,0,1-.081-.274v-.03a.642.642,0,0,1,.552-.7l5.063-.815v-.32a14.089,14.089,0,0,1,.232-2.733l.027-.087a1.6,1.6,0,0,1,1.427-1.279h.115a.137.137,0,0,1,.063,0,.159.159,0,0,1,.06.029.163.163,0,0,1,.039.051.149.149,0,0,1,.012.063l.088,1.889a2.168,2.168,0,0,0,.3,1.047l1.6,2.881Z" transform="translate(-680.584 -216.548)" fill="#fc9d9d"/>
    <path id="Caminho_271" data-name="Caminho 271" d="M1265.432,457.735a3.429,3.429,0,0,1-.986,3.038,3.442,3.442,0,0,1-3.057.921l-18.006-3.491-.383-6.312,11.344.784-1.536-10.421.727-1.949c-.145-4.625,1.309-7.793,3.693-11.767l3.318,1.207Z" transform="translate(-720.386 -177.73)" fill="#9ad2c1"/>
    <path id="Caminho_272" data-name="Caminho 272" d="M1244.18,524.061l.057.845,17.99,3.491a3.425,3.425,0,0,0,4.073-3.346,3.415,3.415,0,0,1-3.723,1.831Z" transform="translate(-721.21 -244.432)" opacity="0.15"/>
    <path id="Caminho_273" data-name="Caminho 273" d="M1279.537,501.23l1.162.115a.419.419,0,0,0,.235-.044.408.408,0,0,0,.172-.165.416.416,0,0,0,.054-.232.427.427,0,0,0-.081-.225l-2.009-2.649Z" transform="translate(-745.574 -226.254)" opacity="0.15"/>
    <path id="Caminho_274" data-name="Caminho 274" d="M1185.85,501.47v.027a.726.726,0,0,0,.082.273.685.685,0,0,0,.19.214.642.642,0,0,0,.259.117.667.667,0,0,0,.284,0h.06a.905.905,0,0,0-.727.96.926.926,0,0,0,.959.845.865.865,0,0,0-.329.088.879.879,0,0,0-.271.207.869.869,0,0,0-.169.3.81.81,0,0,0-.045.338.844.844,0,0,0,.757.784h.115a.673.673,0,0,0-.3.027.662.662,0,0,0-.257.153.651.651,0,0,0-.163.25.662.662,0,0,0-.039.3.626.626,0,0,0,.495.6c.38.087.757.175,1.135.232l-.377-.727a.63.63,0,0,1,0-.64l.145-.232a.609.609,0,0,0,.084-.339.62.62,0,0,0-.112-.331l-.06-.118a.6.6,0,0,1,0-.7l.088-.115a.605.605,0,0,0,0-.7l-.115-.175a.6.6,0,0,1-.109-.282.593.593,0,0,1,.049-.3l.148-.323a.6.6,0,0,0-.06-.579.62.62,0,0,1-.1-.316.611.611,0,0,1,.072-.324l.145-.263c.027-.057.057-.088.057-.145l-1.279.2a.759.759,0,0,0-.419.242.77.77,0,0,0-.193.446Z" transform="translate(-680.478 -228.036)" opacity="0.15"/>
    <path id="Caminho_275" data-name="Caminho 275" d="M1225.018,523.317l-.057-.757-5.672-.582a10.879,10.879,0,0,0-2.383,0l-.205.03" transform="translate(-702.021 -242.932)" opacity="0.15"/>
    <path id="Caminho_276" data-name="Caminho 276" d="M1237.62,504.4a.217.217,0,0,0,.057.157.22.22,0,0,0,.148.076l11.284.815.057-.437-11.314-.815a.227.227,0,0,0-.157.056.233.233,0,0,0-.075.149Z" transform="translate(-716.629 -230.563)" opacity="0.2"/>
    <path id="Caminho_277" data-name="Caminho 277" d="M1228.716,627.746l4.526,87.542-2.676.03-7.416-92.895a1.245,1.245,0,0,0-.407-.845,1.191,1.191,0,0,0-.872-.35,6.86,6.86,0,0,1,6.846,6.517Z" transform="translate(-705.631 -312.284)" opacity="0.2"/>
    <path id="Caminho_278" data-name="Caminho 278" d="M1157.273,519.938h3.783l1.686-15.532a105.826,105.826,0,0,0-1.107-19.662l-.929-6.167a.6.6,0,0,0-.462-.517.6.6,0,0,0-.642.257l-1.931,4.305.329,2.208a89.17,89.17,0,0,1-.2,18.9l-1.744,14.8a1.273,1.273,0,0,0,.308.963,1.268,1.268,0,0,0,.911.434Z" transform="translate(-659.668 -212.299)" opacity="0.2"/>
    <path id="Caminho_279" data-name="Caminho 279" d="M1057.725,460.425l-2.444-.757a7.09,7.09,0,0,0-8.055.905,2.037,2.037,0,0,0-.6.884,2,2,0,0,0-.072,1.065l.99,2.966a.623.623,0,0,0,.229.293.632.632,0,0,0,.353.114.616.616,0,0,0,.247-.061.609.609,0,0,0,.2-.157.587.587,0,0,0,.118-.226.594.594,0,0,0,.015-.254l-.492-3.376.667,4.525a.751.751,0,0,0,1.026.585.74.74,0,0,0,.253-.171.721.721,0,0,0,.16-.258.731.731,0,0,0,.045-.3l-.205-4.42s.175,3.053.235,4.508a.727.727,0,0,0,.712.68.727.727,0,0,0,.5-.181.741.741,0,0,0,.244-.469l.3-4.45a.206.206,0,0,1,.057-.078.184.184,0,0,1,.088-.04.133.133,0,0,1,.1.029.131.131,0,0,1,.049.089l.3,4.45a.7.7,0,0,0,.7.667.727.727,0,0,0,.471-.189.738.738,0,0,0,.229-.451l.465-4.652h2.208a1.111,1.111,0,0,0,1.107-1.107C1057.9,460.512,1057.824,460.395,1057.725,460.425Z" transform="translate(-583.182 -198.868)" fill="#fc9d9d"/>
    <g id="Grupo_9" data-name="Grupo 9" transform="translate(466.799 262.923)" opacity="0.2">
      <path id="Caminho_280" data-name="Caminho 280" d="M1058,468.689l.136,4.1h.407l-.136-4.1Z" transform="translate(-1058 -468.689)" opacity="0.2"/>
    </g>
    <g id="Grupo_10" data-name="Grupo 10" transform="translate(464.862 263.152)" opacity="0.2">
      <path id="Caminho_281" data-name="Caminho 281" d="M1051.58,469.47l.275,3.319.407-.036-.274-3.3Z" transform="translate(-1051.58 -469.449)" opacity="0.2"/>
    </g>
    <path id="Caminho_282" data-name="Caminho 282" d="M1073.348,464.735a.4.4,0,0,1,.25-.347.394.394,0,0,1,.42.084l1.162,1.107h-1.919Z" transform="translate(-601.857 -202.744)" opacity="0.2"/>
    <path id="Caminho_283" data-name="Caminho 283" d="M1271.114,482.161l-2.064-.145L1270.5,471.6a.152.152,0,0,1,.057-.095.158.158,0,0,1,.1-.037.165.165,0,0,1,.16.132l.905,5.292Z" transform="translate(-738.577 -207.71)" opacity="0.15"/>
  </g>
</svg>
