<svg xmlns="http://www.w3.org/2000/svg" width="275" height="275" viewBox="0 0 275 275" version="1.1">
	<path d="M 117.500 1.637 C 104.289 3.628, 88.574 8.535, 76.446 14.455 C 38.808 32.826, 12.898 64.496, 3.035 104.183 C 0.126 115.891, -0 117.289, -0 138 C -0 158.789, 0.117 160.074, 3.089 172.052 C 18 232.150, 73.180 275.082, 135.381 274.980 C 149.464 274.957, 157.815 273.914, 171 270.531 C 208.031 261.031, 239.449 235.875, 257.840 201 C 267.262 183.133, 271.787 165.745, 272.673 144 C 273.327 127.946, 272.316 117.741, 268.608 102.960 C 256.737 55.641, 218.186 17.332, 170 4.971 C 158.494 2.019, 156.028 1.741, 139 1.474 C 128.825 1.315, 119.150 1.388, 117.500 1.637 M 115.647 6.541 C 69.094 13.312, 28.365 47.432, 11.709 93.611 C 4.705 113.029, 2.800 141.472, 7.107 162.308 C 14.968 200.329, 39.536 233.449, 74.233 252.801 C 80.054 256.047, 82.121 256.892, 96.673 261.969 C 122.411 270.950, 159.586 269.814, 184 259.301 C 199.306 252.710, 214.120 243.803, 221.660 236.657 C 223.772 234.655, 225.773 233.013, 226.107 233.009 C 227.352 232.991, 242.128 215.243, 246.513 208.498 C 254.974 195.484, 260.981 181.157, 265.169 164 C 268.170 151.704, 268.180 121.374, 265.187 108.989 C 258.514 81.381, 243.943 56.241, 224.851 39.400 C 221.908 36.803, 219.275 34.378, 219 34.009 C 218.725 33.640, 214 30.391, 208.500 26.788 C 191.518 15.665, 174.173 9.013, 155.564 6.485 C 142.656 4.732, 127.939 4.753, 115.647 6.541 M 110.500 9.011 C 81.441 14.959, 55.506 30.571, 35.994 53.861 C 10.407 84.403, 0.041 128.648, 9.605 166.500 C 11.423 173.696, 17.223 189.546, 20.157 195.335 C 28.143 211.093, 45.143 231.186, 58.773 240.978 C 74.961 252.608, 93.082 260.536, 113 264.701 C 124.670 267.142, 148.296 267.089, 159.945 264.596 C 211.477 253.567, 249.168 217.874, 262.610 167.374 C 274.496 122.716, 257.782 69.989, 221.906 38.960 C 203.736 23.244, 182.443 12.817, 159.722 8.507 C 148.318 6.343, 122.225 6.611, 110.500 9.011 M 239.120 78 C 236.797 80.891, 236.335 82, 237.453 82 C 239.421 82, 239.400 82.678, 237.064 94.611 C 235.263 103.812, 233.399 114.465, 229.473 138 C 227.140 151.982, 220.018 189.261, 219.346 191 C 218.697 192.682, 218.351 191.734, 211.678 170 C 207.411 156.102, 205.455 149.626, 198.845 127.500 C 187.383 89.133, 187.328 89, 182.892 89 C 181.076 89, 179.968 92.096, 166.071 136 C 151.367 182.453, 147.579 193.240, 146.814 190.826 C 146.409 189.547, 143.793 175.675, 140.999 160 C 138.206 144.325, 134.114 121.375, 131.906 109 C 129.699 96.625, 127.661 85.713, 127.379 84.750 C 127.064 83.677, 125.882 83, 124.321 83 C 121.993 83, 121.829 83.276, 122.384 86.250 C 122.718 88.037, 123.420 92.894, 123.945 97.041 C 124.469 101.189, 125.374 106.709, 125.957 109.308 C 127.678 116.988, 133.761 149.544, 135.895 162.500 C 141.530 196.709, 142.596 200, 148.034 200 C 151.216 200, 151.108 200.227, 157.088 181 C 159.398 173.575, 163.615 160.300, 166.461 151.500 C 169.306 142.700, 174.290 127.287, 177.536 117.250 C 180.782 107.213, 183.728 99, 184.082 99 C 184.436 99, 185.523 101.588, 186.497 104.750 C 187.471 107.912, 189.951 115.900, 192.009 122.500 C 194.067 129.100, 196.729 137.875, 197.926 142 C 199.122 146.125, 201.025 152.425, 202.156 156 C 203.287 159.575, 205.710 167.675, 207.541 174 C 215.135 200.231, 215.043 200, 217.966 200 C 223.728 200, 224.345 198.318, 229.509 168.500 C 230.461 163, 233.854 144.325, 237.048 127 C 240.242 109.675, 243.172 92.855, 243.559 89.622 C 244.093 85.160, 244.698 83.630, 246.069 83.272 C 247.779 82.824, 247.761 82.563, 245.739 78.400 C 244.563 75.980, 243.316 74, 242.968 74 C 242.620 74, 240.888 75.800, 239.120 78 M 40 138.332 C 40 193.747, 40.161 200.018, 41.622 201.479 C 43.064 202.921, 46.815 203.068, 75.372 202.801 C 106.706 202.507, 107.630 202.441, 112.742 200.130 C 118.847 197.370, 124.375 191.663, 127.276 185.122 C 128.893 181.477, 129.344 178.281, 129.413 170 C 129.461 164.225, 129.152 157.863, 128.726 155.862 C 127.560 150.385, 121.938 143.737, 115.721 140.481 L 110.282 137.634 112.937 135.400 C 114.397 134.171, 116.897 130.769, 118.491 127.839 C 121.077 123.087, 121.435 121.326, 121.806 111.506 C 122.339 97.414, 121.219 93.226, 115.180 86.732 C 106.831 77.754, 106.126 77.602, 70.750 77.177 L 40 76.807 40 138.332 M 46 110 L 46 137 72.532 137 C 100.858 137, 103.601 136.603, 108.762 131.754 C 113.301 127.490, 114.307 124.117, 114.775 111.589 C 115.433 93.997, 113.836 90.288, 103.500 85.389 C 98.637 83.084, 97.781 83.019, 72.250 83.010 L 46 83 46 110 M 46 170.067 L 46 198.134 75.750 197.817 C 104.019 197.516, 105.699 197.392, 109.500 195.338 C 114.314 192.737, 119.537 187.739, 121.808 183.561 C 123.929 179.659, 124.203 159.164, 122.197 154.415 C 120.563 150.547, 112.774 144.555, 107.500 143.108 C 105.031 142.431, 92.498 142.009, 74.750 142.006 L 46 142 46 170.067" stroke="none" fill="black" fill-rule="evenodd"/>
</svg>