<svg xmlns="http://www.w3.org/2000/svg" width="700" height="700" viewBox="0 0 700 700" version="1.1">
	<path d="M 324.500 64.624 C 255.431 71.715, 194.793 100.180, 147.380 147.769 C 103.541 191.772, 76.247 246.163, 66.475 309 C 63.939 325.302, 63.378 362.102, 65.384 380.500 C 69.205 415.552, 77.553 444.076, 93.480 476.500 C 106.863 503.747, 123.206 526.939, 144.474 548.869 C 189.513 595.307, 248.808 625.342, 311.458 633.452 C 327.986 635.591, 372.739 635.581, 388.216 633.435 C 451.096 624.713, 507.410 596.757, 552.083 552.083 C 594.190 509.977, 620.925 458.485, 632.084 398 C 633.852 388.421, 634.289 381.301, 634.706 355.378 C 635.159 327.218, 635.003 322.839, 633.064 309.378 C 617.380 200.463, 540.528 109.775, 436.168 77.035 C 406.446 67.711, 388.073 64.910, 354 64.512 C 339.975 64.347, 326.700 64.398, 324.500 64.624 M 335 73.107 C 293.538 74.972, 254.116 86.559, 214.412 108.549 C 179.957 127.632, 145.453 160.075, 121.163 196.226 C 104.333 221.273, 88.201 259.048, 82.611 286.500 C 71.586 340.632, 74.381 389.148, 91.279 437 C 92.930 441.675, 94.979 447.514, 95.833 449.976 C 98.751 458.387, 112.525 484.484, 120.125 496 C 131.860 513.781, 141.234 525.339, 155.448 539.551 C 171.836 555.937, 174.277 558.071, 188.175 568.173 C 237.608 604.103, 289.412 621.016, 349.962 620.992 C 383.565 620.978, 407.552 617.278, 437.500 607.487 C 512.231 583.056, 576.529 522.323, 605.291 449 C 609.511 438.240, 616.197 417.636, 617.297 412 C 617.565 410.625, 618.687 405, 619.789 399.500 C 623.676 380.110, 624.500 370.929, 624.500 347 C 624.500 321.641, 623.687 313.503, 618.805 290 C 600.628 202.494, 538.697 127.968, 455.592 93.596 C 416.310 77.348, 379.553 71.103, 335 73.107 M 331.500 76.491 C 330.400 76.684, 324.775 77.366, 319 78.005 C 252.599 85.350, 189.658 118.783, 145.605 170.108 C 88.715 236.387, 67.696 320.670, 86.403 407.500 C 88.459 417.047, 94.070 435.300, 97.928 445 C 112.255 481.011, 132.006 511.029, 159.477 538.542 C 210.532 589.675, 278.740 617.959, 351 617.961 C 370.201 617.961, 392.859 615.440, 410 611.396 C 450.746 601.784, 487.124 584.139, 520 558.041 C 530.173 549.965, 549.809 530.937, 557.070 522.119 C 559.506 519.160, 561.956 516.235, 562.514 515.619 C 564.674 513.236, 573.978 500.169, 578.264 493.500 C 600.760 458.497, 614.407 420.724, 619.557 379.207 C 622.301 357.085, 620.988 315.070, 617.004 297.537 C 616.500 295.317, 615.131 289.225, 613.962 284 C 602.557 233.021, 571.803 181.511, 531.173 145.337 C 490.089 108.758, 442.124 86.566, 386.500 78.401 C 377.423 77.069, 336.321 75.641, 331.500 76.491 M 566.074 223.183 L 558.933 232.485 562.036 233.289 C 564.889 234.028, 565.088 234.351, 564.510 237.297 C 564.164 239.058, 563.447 242.750, 562.917 245.500 C 561.722 251.700, 553.184 300.279, 549.033 324.500 C 547.337 334.400, 545.502 344.750, 544.956 347.500 C 544.042 352.100, 538.806 381.423, 535.491 400.500 C 531.485 423.556, 529.839 432.751, 527.436 445.500 C 525.985 453.200, 524.568 460.733, 524.287 462.240 C 524.006 463.747, 523.421 464.760, 522.987 464.492 C 522.040 463.907, 520.917 460.298, 499.031 387.500 C 489.606 356.150, 478.969 320.825, 475.393 309 C 471.817 297.175, 467.333 282.325, 465.430 276 C 459.383 255.912, 458.558 253.751, 455.796 250.788 C 453.441 248.262, 452.489 247.926, 448.429 248.193 C 443.163 248.540, 443.445 248.097, 438.675 263.500 C 434.683 276.388, 425.196 306.296, 419.959 322.500 C 417.293 330.750, 413.921 341.325, 412.465 346 C 411.009 350.675, 408.777 357.650, 407.505 361.500 C 406.234 365.350, 403.303 374.575, 400.992 382 C 398.682 389.425, 395.895 398.200, 394.799 401.500 C 393.703 404.800, 389.480 417.850, 385.413 430.500 C 376.019 459.725, 374.693 463.435, 373.510 463.790 C 372.978 463.950, 371.786 459.675, 370.861 454.290 C 369.935 448.906, 368.689 441.800, 368.091 438.500 C 367.494 435.200, 365.871 425.975, 364.485 418 C 363.100 410.025, 361.298 399.900, 360.481 395.500 C 359.168 388.425, 353.149 354.526, 346.987 319.500 C 336.508 259.941, 334.601 249.342, 332.908 241.250 L 331.600 235 325.800 235 C 322.610 235, 320.003 235.338, 320.006 235.750 C 320.014 236.805, 326.698 276.854, 327.474 280.500 C 327.825 282.150, 328.511 285.300, 328.998 287.500 C 329.485 289.700, 330.626 295.775, 331.534 301 C 332.441 306.225, 333.798 313.650, 334.547 317.500 C 335.297 321.350, 337.255 332.150, 338.899 341.500 C 342.108 359.756, 350.009 403.404, 352.474 416.500 C 353.303 420.900, 354.653 428.325, 355.476 433 C 356.298 437.675, 357.678 445.325, 358.543 450 C 359.407 454.675, 360.504 460.794, 360.980 463.597 C 363.028 475.662, 367.393 480.312, 376.190 479.803 L 381.423 479.500 383.625 472.500 C 384.836 468.650, 389.276 454.700, 393.491 441.500 C 397.707 428.300, 403.863 408.950, 407.172 398.500 C 410.480 388.050, 414.233 376.350, 415.510 372.500 C 417.510 366.475, 421.197 354.895, 433.503 316 C 445.267 278.816, 449.225 267, 449.915 267 C 451.047 267, 455.953 282.014, 468.540 324 C 474.787 344.838, 484.718 377.738, 491.029 398.500 C 493.871 407.850, 496.789 417.525, 497.514 420 C 498.992 425.048, 507.078 451.760, 512.196 468.500 L 515.558 479.500 521.148 479.796 C 525.940 480.050, 527.174 479.724, 529.802 477.513 C 531.487 476.095, 533.339 473.487, 533.916 471.717 C 534.493 469.948, 538.342 449.825, 542.470 427 C 546.598 404.175, 550.862 380.775, 551.946 375 C 555.561 355.726, 574.132 252.585, 575.082 246.500 C 576.732 235.928, 576.818 235.732, 579.570 236.258 C 580.933 236.519, 582.272 236.368, 582.547 235.924 C 582.941 235.286, 574.683 215.432, 573.507 214.190 C 573.346 214.020, 570.001 218.067, 566.074 223.183 M 149.453 224.261 C 149.187 224.954, 149.089 282.518, 149.235 352.180 L 149.500 478.839 151.849 481.339 C 153.141 482.714, 155.425 484.348, 156.925 484.969 C 158.886 485.781, 177.210 485.998, 222.077 485.740 C 291.813 485.340, 288.632 485.640, 304.675 477.939 C 318.571 471.269, 329.392 458.715, 334.203 443.682 C 336.738 435.760, 337.921 403.144, 336.064 392.386 C 334.181 381.479, 329.221 372.317, 321.161 364.856 C 314.613 358.795, 301.392 351, 297.659 351 C 295.109 351, 295.692 348.503, 298.606 346.943 C 302.375 344.926, 310.055 336.189, 313.272 330.259 C 318.660 320.326, 320.001 312.003, 319.988 288.590 C 319.975 265.994, 319.315 261.445, 314.748 252.500 C 310.042 243.282, 298.340 233.243, 286.500 228.267 C 274.925 223.403, 268.871 223, 207.358 223 C 162.085 223, 149.835 223.267, 149.453 224.261 M 162 290.386 C 162 333.685, 162.275 346.060, 163.250 346.691 C 165.253 347.987, 263.439 348.289, 271 347.022 C 288.129 344.152, 301.062 332.127, 305.519 314.925 C 306.787 310.034, 307.046 304.437, 306.803 287.150 C 306.510 266.248, 306.410 265.309, 303.905 259.967 C 299.467 250.506, 289.855 242.456, 277.420 237.786 C 271.611 235.605, 270.473 235.557, 216.750 235.227 L 162 234.890 162 290.386 M 162.459 360.250 C 162.196 360.938, 162.097 386.700, 162.240 417.500 L 162.500 473.500 220 473.766 C 269.435 473.994, 278.478 473.810, 284.473 472.453 C 303.983 468.037, 319.565 452.677, 322.906 434.566 C 324.315 426.923, 324.320 400.117, 322.913 392.434 C 321.454 384.466, 317.677 377.820, 311.292 371.984 C 304.742 365.998, 297.699 362.505, 288.185 360.523 C 278.324 358.470, 163.236 358.220, 162.459 360.250" stroke="none" fill="black" fill-rule="evenodd"/>
</svg>